<?xml version="1.0" standalone="no"?>
<!DOCTYPE svg PUBLIC "-//W3C//DTD SVG 20010904//EN"
 "http://www.w3.org/TR/2001/REC-SVG-20010904/DTD/svg10.dtd">
<svg version="1.0" xmlns="http://www.w3.org/2000/svg"
 width="512.000000pt" height="512.000000pt" viewBox="0 0 512.000000 512.000000"
 preserveAspectRatio="xMidYMid meet">
<metadata>
Created by potrace 1.11, written by Peter Selinger 2001-2013
</metadata>
<g transform="translate(0.000000,512.000000) scale(0.100000,-0.100000)"
fill="#000000" stroke="none">
<path d="M2349 4606 c-2 -2 -31 -6 -64 -10 -33 -3 -71 -8 -85 -11 -14 -3 -41
-8 -60 -11 -82 -13 -315 -83 -397 -119 -238 -106 -419 -217 -578 -354 -128
-111 -302 -312 -388 -448 -123 -195 -229 -461 -262 -658 -2 -16 -7 -41 -10
-55 -22 -113 -30 -212 -30 -400 0 -180 9 -300 30 -400 3 -14 8 -38 11 -55 5
-27 21 -96 28 -120 1 -5 8 -30 15 -55 81 -297 239 -567 461 -791 233 -234 561
-426 870 -510 25 -7 50 -14 55 -15 16 -5 139 -33 171 -38 16 -3 40 -8 54 -11
154 -31 547 -38 690 -11 14 3 45 8 70 11 56 6 84 12 169 31 36 9 74 17 83 19
61 13 280 95 384 144 399 191 695 485 886 882 45 91 133 329 122 329 -2 0 0 8
5 18 5 9 11 31 14 47 2 17 9 48 15 70 11 41 16 74 29 180 10 79 10 432 0 515
-11 93 -26 179 -46 260 -7 25 -14 55 -16 67 -10 46 -79 241 -107 303 -102 227
-227 417 -381 577 -33 34 -63 66 -66 70 -11 14 -144 128 -206 175 -156 118
-415 246 -595 294 -76 20 -232 54 -273 59 -27 4 -59 9 -71 12 -24 6 -521 15
-527 9z m-76 -278 c-27 -46 -268 -368 -274 -368 -5 0 20 43 54 95 34 52 88
135 121 185 32 51 68 95 80 100 25 9 31 6 19 -12z m-193 -25 c0 -3 -13 -22
-29 -42 -79 -101 -190 -295 -216 -379 -4 -13 -9 -21 -12 -18 -20 20 173 432
205 438 30 6 52 7 52 1z m347 -4 c-5 -13 -161 -149 -165 -144 -3 2 21 38 53
79 50 65 61 75 86 73 16 -1 28 -5 26 -8z m132 -26 c-24 -21 -71 -62 -103 -93
-32 -30 -54 -46 -48 -34 6 11 41 47 79 80 37 32 70 61 73 65 4 5 27 16 39 18
3 1 -15 -16 -40 -36z m-669 -7 c0 -3 -24 -46 -53 -98 -30 -51 -70 -123 -91
-160 -40 -74 -46 -80 -64 -69 -14 8 29 102 116 254 35 63 48 77 68 77 13 0 24
-2 24 -4z m810 -13 c0 -5 -12 -16 -26 -27 l-26 -19 17 27 c16 25 35 35 35 19z
m151 -36 c-10 -9 -11 -8 -5 6 3 10 9 15 12 12 3 -3 0 -11 -7 -18z m431 -54
c-16 -21 -45 -51 -62 -68 l-33 -30 19 30 c10 17 31 46 46 66 15 20 28 45 28
55 0 17 1 17 16 2 16 -15 15 -19 -14 -55z m-167 1 c-64 -58 -101 -80 -65 -38
40 46 54 60 75 72 42 24 38 9 -10 -34z m-135 22 c0 -2 -8 -10 -17 -17 -16 -13
-17 -12 -4 4 13 16 21 21 21 13z m-271 -50 c-8 -16 -17 -22 -30 -19 -17 5 -17
6 4 24 30 25 39 24 26 -5z m-1129 -32 c-6 -16 -19 -38 -29 -49 -16 -18 -44
-98 -71 -200 -5 -22 -23 -56 -40 -75 l-29 -35 9 35 c26 107 64 194 130 301 38
62 47 68 30 23z m1813 -54 c-23 -37 -95 -130 -100 -130 -17 0 47 158 80 199 9
11 14 8 24 -15 9 -24 9 -33 -4 -54z m-314 -39 c-7 -20 -15 -28 -25 -24 -8 3
-14 7 -14 10 0 4 41 42 47 43 1 0 -3 -13 -8 -29z m141 -47 c0 -8 -5 -12 -10
-9 -6 4 -8 11 -5 16 9 14 15 11 15 -7z m-577 -8 c33 -4 70 -11 83 -16 13 -5
24 -8 24 -6 0 6 104 -31 175 -62 213 -92 345 -307 339 -552 -3 -153 -31 -257
-102 -394 -37 -71 -71 -114 -162 -210 -63 -67 -132 -142 -152 -167 -64 -78
-143 -238 -163 -329 -3 -11 -7 -29 -9 -40 -3 -11 -7 -23 -9 -28 -3 -4 -8 -23
-11 -42 -3 -19 -9 -48 -12 -65 -4 -16 -7 -36 -7 -42 0 -7 -3 -13 -6 -14 -3 0
-15 -3 -26 -5 -11 -3 -43 -7 -72 -8 -145 -8 -194 106 -128 299 57 167 104 240
264 407 132 138 155 166 196 233 81 136 120 360 89 512 -33 157 -149 291 -275
319 -13 3 -35 7 -49 10 -84 18 -193 4 -267 -36 -54 -29 -113 -98 -152 -177
-18 -38 -41 -83 -49 -100 -40 -80 -194 -77 -229 4 -15 36 -21 115 -12 158 16
70 97 178 179 237 51 37 126 77 152 81 13 2 30 6 38 10 35 13 55 18 89 23 20
3 37 7 38 8 5 5 172 -1 226 -8z m1006 -191 c0 -5 -8 6 -19 26 -10 19 -17 44
-15 55 2 10 4 24 5 29 2 11 29 -93 29 -110z m493 -115 c65 -95 52 -82 -52 50
-105 133 -115 148 -51 80 28 -30 74 -89 103 -130z m-243 38 c23 -41 23 -42 2
-24 -11 11 -21 15 -21 11 0 -22 -24 19 -40 67 l-18 53 26 -32 c15 -18 38 -52
51 -75z m-321 -24 c-14 -14 -15 -12 -13 18 4 45 5 46 17 20 9 -18 8 -26 -4
-38z m205 -67 c-8 -13 -21 23 -22 58 0 13 5 8 14 -14 8 -18 12 -38 8 -44z
m-2527 34 c-2 -3 -7 -40 -11 -81 -4 -41 -9 -86 -10 -100 -2 -14 -6 -56 -10
-95 -10 -103 -13 -122 -20 -145 -12 -39 -23 -19 -20 38 4 62 16 255 20 312 2
19 3 47 4 61 1 22 5 26 26 21 14 -2 23 -7 21 -11z m2695 -43 c12 -29 28 -66
35 -83 6 -16 18 -43 25 -60 6 -16 20 -52 29 -78 17 -46 17 -48 0 -44 -21 5
-53 -11 -45 -23 3 -5 2 -11 -3 -14 -5 -3 -9 0 -9 7 -2 39 -31 139 -67 226 -18
44 -23 68 -16 75 5 5 10 18 10 28 0 33 17 19 41 -34z m-2526 0 c-3 -24 -8 -50
-10 -58 -2 -8 -7 -40 -10 -70 -3 -30 -8 -66 -10 -80 -2 -14 -7 -50 -10 -80
-12 -104 -16 -64 -12 108 4 164 6 174 27 198 13 13 25 24 27 24 2 0 1 -19 -2
-42z m1123 7 c-15 -8 -34 -12 -42 -9 -28 11 -17 20 27 22 l42 2 -27 -15z
m-972 -13 c-5 -9 -10 -34 -22 -107 -3 -22 -9 -44 -13 -48 -5 -5 -4 16 0 45 5
29 10 68 11 86 1 19 7 32 16 32 7 0 11 -4 8 -8z m2038 -97 c-12 -38 -33 -101
-45 -140 l-24 -70 -8 71 c-7 69 -6 74 23 125 17 30 38 69 47 87 29 56 33 7 7
-73z m511 -24 c49 -81 55 -95 41 -103 -9 -5 -16 -17 -17 -26 0 -9 -7 3 -14 28
-8 25 -18 54 -23 65 -27 59 -61 148 -54 140 5 -6 35 -52 67 -104z m-1378 46
c19 -31 31 -67 40 -111 5 -29 -4 -16 -20 29 -8 22 -22 57 -31 78 -20 46 -15
48 11 4z m-109 -47 c14 -39 8 -38 -12 2 -18 36 -19 41 -7 34 5 -3 14 -19 19
-36z m1215 -50 c10 -33 20 -69 22 -81 2 -11 7 -28 10 -37 3 -11 -3 -21 -17
-27 -24 -11 -24 -10 -30 -172 -3 -115 -17 -140 -19 -35 -2 93 -6 182 -13 279
-6 75 4 133 23 133 4 0 15 -27 24 -60z m-1313 -3 c6 -21 14 -52 16 -70 3 -26
-2 -21 -27 30 -18 37 -29 70 -25 79 9 22 20 9 36 -39z m-81 -152 c0 -5 -7 8
-15 30 -9 22 -20 48 -25 58 -5 10 -6 23 -2 30 6 10 43 -92 42 -118z m-1534 33
c-2 -18 -6 -76 -10 -128 -3 -52 -8 -111 -10 -130 -5 -46 -16 -130 -20 -155 -2
-11 -4 -26 -4 -32 -1 -7 -5 -13 -10 -13 -5 0 -8 24 -5 53 9 133 15 194 19 220
3 15 7 38 9 51 2 13 8 50 12 82 4 33 9 62 10 67 1 4 2 9 3 12 0 3 3 5 5 5 2 0
2 -15 1 -32z m3351 -124 l2 -89 -13 60 c-8 33 -16 77 -19 98 -5 33 -3 37 11
28 14 -7 17 -27 19 -97z m-1489 74 c-3 -8 -6 -5 -6 6 -1 11 2 17 5 13 3 -3 4
-12 1 -19z m-1183 -13 c-2 -14 -6 -70 -7 -125 -1 -55 -3 -100 -5 -100 -6 0
-36 86 -33 95 2 6 9 34 16 63 7 29 13 55 14 57 0 3 1 12 1 20 0 8 4 15 9 15 5
0 8 -11 5 -25z m2113 0 c0 -8 -6 -16 -14 -19 -11 -4 -11 -1 -3 14 13 24 17 25
17 5z m-1349 -7 c0 -7 3 -35 6 -63 l5 -50 -19 55 c-10 30 -16 58 -14 62 8 12
21 9 22 -4z m-126 -33 c4 -31 2 -33 -12 -20 -9 8 -22 15 -28 15 -12 0 17 37
29 39 4 1 9 -15 11 -34z m-1141 2 c-10 -9 -11 -8 -5 6 3 10 9 15 12 12 3 -3 0
-11 -7 -18z m1037 -16 l27 -1 -4 -67 -3 -68 -22 60 c-20 57 -23 60 -54 60 -17
0 -32 4 -32 10 0 5 14 9 30 9 17 -1 42 -2 58 -3z m2003 -10 c0 -3 3 -37 5 -75
3 -71 -9 -81 -20 -16 -3 19 -10 51 -16 70 -5 19 -10 36 -10 36 0 5 40 -9 41
-15z m-3036 -65 c0 -68 -1 -73 -16 -60 -13 12 -15 23 -8 52 4 20 8 38 9 40 0
1 0 11 0 22 0 11 4 20 8 20 4 0 8 -33 7 -74z m2582 67 c-6 -10 -15 -76 -22
-168 -13 -152 -20 -157 -20 -12 0 109 15 187 36 187 6 0 8 -3 6 -7z m-2912
-99 c-7 -38 -16 -87 -19 -109 -7 -57 -16 -105 -26 -145 -7 -28 -8 -21 -5 33 7
87 13 133 25 180 35 131 49 154 25 41z m3200 -9 c0 -47 -3 -85 -7 -85 -5 0 -8
8 -9 18 0 9 -2 26 -4 37 -2 11 -7 41 -10 68 -6 41 -4 47 12 47 16 0 18 -9 18
-85z m-1927 32 c1 -23 11 -82 21 -130 28 -132 13 -104 -48 88 -17 55 -18 61
-3 73 24 18 27 16 30 -31z m532 -14 c0 -13 -4 -23 -10 -23 -5 0 -10 17 -10 38
0 27 3 33 10 22 5 -8 10 -25 10 -37z m-1293 -10 c2 -30 0 -34 -7 -18 -11 25
-13 68 -2 61 4 -2 9 -22 9 -43z m2781 -84 c7 -26 6 -42 -4 -60 -12 -22 -13
-18 -13 46 1 73 2 74 17 14z m-2120 -3 c0 -6 3 -22 6 -36 20 -88 37 -182 33
-186 -3 -3 -32 82 -78 232 -6 19 -4 20 16 11 12 -6 22 -16 23 -21z m-154 -21
c16 -25 30 -84 40 -175 5 -38 4 -41 -5 -20 -72 167 -76 176 -66 198 12 27 11
27 31 -3z m2043 10 c0 -8 -4 -12 -9 -9 -5 3 -6 10 -3 15 9 13 12 11 12 -6z
m140 -27 c-3 -8 -6 -5 -6 6 -1 11 2 17 5 13 3 -3 4 -12 1 -19z m-1427 -10 c0
-18 -2 -20 -9 -8 -6 8 -7 18 -5 22 9 14 14 9 14 -14z m-180 -52 c10 -37 6
-136 -5 -124 -2 2 -7 39 -10 83 -4 44 -9 84 -13 89 -3 5 -1 6 5 3 6 -4 16 -26
23 -51z m1108 -8 c-5 -24 -11 -56 -14 -73 -7 -45 -12 -77 -18 -112 -13 -70
-18 -99 -21 -123 -2 -14 -6 -41 -10 -60 -4 -19 -8 -41 -8 -48 0 -7 -4 -9 -9
-4 -5 5 -10 61 -11 125 -3 106 -2 117 14 117 24 0 27 8 35 71 9 71 8 68 27
112 21 49 27 47 15 -5z m-2014 -88 c16 -41 33 -81 39 -87 6 -9 4 -15 -6 -19
-9 -3 -18 -12 -21 -19 -6 -17 23 -111 64 -210 62 -148 104 -325 81 -340 -4 -2
-8 1 -8 8 0 7 -6 32 -13 57 -8 25 -14 47 -15 50 -1 3 -7 25 -14 50 -7 25 -13
46 -12 47 0 2 -6 18 -15 38 -8 19 -12 35 -9 35 4 0 3 6 -2 13 -4 6 -8 18 -9
24 -1 7 -11 41 -22 75 -18 57 -42 138 -48 163 -1 6 -13 53 -26 105 -25 99 -27
154 -4 108 6 -12 24 -57 40 -98z m94 85 c-3 -3 -9 2 -12 12 -6 14 -5 15 5 6 7
-7 10 -15 7 -18z m-500 8 c-2 -13 11 -59 82 -278 38 -115 83 -255 101 -310 31
-97 48 -185 35 -185 -7 0 -47 86 -80 170 -10 25 -23 56 -28 70 -17 42 -89 263
-94 289 -3 13 -11 39 -19 57 -8 19 -12 34 -10 34 2 0 -2 15 -9 33 -13 34 -13
37 -1 82 9 33 14 45 21 45 2 0 3 -3 2 -7z m166 -58 c4 -19 7 -37 7 -40 1 -2
14 -48 30 -102 15 -53 26 -99 24 -101 -2 -2 -6 7 -10 20 -4 13 -13 37 -20 53
-57 129 -70 171 -61 192 13 28 22 22 30 -22z m356 13 c0 -6 11 -36 24 -67 34
-79 115 -294 137 -366 11 -33 19 -82 19 -110 l-1 -50 -25 60 c-27 64 -67 183
-104 305 -12 41 -30 100 -40 130 -27 85 -34 124 -21 116 6 -4 11 -12 11 -18z
m1985 -80 c-1 -99 -2 -104 -29 -131 l-27 -27 5 37 c4 21 8 49 11 63 3 14 7 41
10 60 3 19 7 44 9 55 3 11 5 26 5 33 1 6 4 12 9 12 4 0 7 -46 7 -102z m-2692
57 c-3 -9 -8 -14 -10 -11 -3 3 -2 9 2 15 9 16 15 13 8 -4z m3047 -35 c0 -11 1
-23 2 -27 22 -71 24 -121 6 -172 -29 -88 -19 -127 30 -114 12 3 22 2 22 -2 0
-4 -20 -41 -45 -82 -25 -40 -45 -78 -45 -84 0 -6 -4 -8 -8 -5 -11 7 1 82 18
119 10 20 11 36 4 55 -5 15 -9 50 -8 77 7 211 10 255 17 255 4 0 7 -9 7 -20z
m158 -56 c-1 -19 -6 -38 -10 -40 -10 -6 -10 4 -2 45 9 42 15 39 12 -5z m188
-50 c2 -16 6 -34 9 -41 2 -6 -3 -17 -11 -23 -12 -11 -14 -4 -14 45 0 60 7 69
16 19z m-3629 6 c-2 -11 -6 -22 -9 -26 -4 -3 -5 2 -3 13 2 10 4 21 4 26 1 4 3
7 6 7 3 0 4 -9 2 -20z m1156 -65 c32 -99 42 -148 27 -122 -6 9 -13 25 -15 35
-2 9 -13 50 -24 89 -12 40 -21 76 -21 80 0 16 9 -7 33 -82z m-816 43 c-3 -7
-5 -2 -5 12 0 14 2 19 5 13 2 -7 2 -19 0 -25z m2842 -54 c-1 -35 -6 -61 -11
-58 -4 3 -7 8 -4 12 2 4 0 30 -3 58 -5 39 -4 51 6 51 11 0 13 -16 12 -63z
m-511 -39 c2 -87 0 -99 -27 -152 -46 -92 -149 -353 -165 -418 -15 -59 -29 -95
-37 -95 -6 0 -8 4 -5 8 3 5 8 31 12 58 7 51 10 72 19 114 22 105 24 109 29
118 3 5 7 21 10 37 5 28 21 45 43 45 11 0 18 14 28 57 3 10 20 77 40 148 19
72 37 139 39 150 6 25 6 25 9 25 1 0 3 -43 5 -95z m409 53 c-3 -7 -5 -2 -5 12
0 14 2 19 5 13 2 -7 2 -19 0 -25z m693 -9 c6 -22 14 -48 17 -57 5 -16 5 -16
-12 -1 -15 15 -33 99 -20 99 2 0 9 -18 15 -41z m-3372 -126 c49 -152 90 -287
93 -308 1 -5 6 -21 11 -35 5 -14 11 -32 13 -40 2 -8 8 -35 13 -59 20 -87 -11
-17 -78 174 -24 69 -36 109 -45 150 -2 6 -10 36 -20 68 -29 102 -53 207 -45
207 4 0 30 -71 58 -157z m1077 12 c4 -81 -15 -36 -21 50 -4 50 -2 56 7 35 6
-14 12 -52 14 -85z m1060 38 c-7 -21 -18 -39 -24 -41 -14 -5 -14 0 2 29 31 60
40 64 22 12z m-2374 -30 c11 -30 18 -207 8 -195 -5 6 -19 53 -34 117 -5 21 4
105 11 105 3 0 9 -12 15 -27z m3663 -62 c21 -17 8 -41 -21 -41 -19 0 -24 4
-19 16 3 9 6 34 7 57 1 42 1 42 10 11 5 -17 15 -37 23 -43z m-719 -34 c6 -57
4 -71 -13 -94 -44 -63 -135 -256 -203 -432 -5 -13 -12 -21 -15 -18 -3 3 8 52
24 109 17 56 35 122 41 146 8 30 17 42 30 42 23 0 35 28 52 120 11 67 64 208
74 198 2 -2 7 -34 10 -71z m-216 -6 c-6 -18 -14 -30 -17 -27 -2 3 1 19 8 36
16 40 23 33 9 -9z m-2089 -6 c0 -5 -5 -3 -10 5 -5 8 -10 20 -10 25 0 6 5 3 10
-5 5 -8 10 -19 10 -25z m15 -49 c18 -44 26 -88 14 -81 -5 4 -9 14 -9 23 -1 9
-7 34 -14 55 -17 46 -10 49 9 3z m2038 -26 c-3 -12 -8 -19 -11 -16 -5 6 5 36
12 36 2 0 2 -9 -1 -20z m513 -23 c-1 -19 -78 -139 -109 -172 -5 -5 14 36 43
93 29 56 56 102 60 102 4 0 6 -10 6 -23z m-670 -55 c5 -56 2 -72 -46 -204 -29
-79 -58 -159 -66 -178 l-13 -35 4 44 c5 39 8 60 20 131 3 14 9 40 14 58 5 18
10 33 9 35 -2 13 64 219 69 214 1 -2 5 -31 9 -65z m150 29 c-6 -9 -14 -53 -22
-111 -12 -107 -8 -91 -79 -275 -61 -159 -66 -169 -60 -125 3 19 7 46 10 60 3
14 7 34 9 45 2 11 14 63 27 115 13 52 24 98 25 103 1 4 2 8 4 10 1 1 3 10 5
21 2 10 13 41 24 70 11 28 25 64 31 79 5 16 15 25 20 22 6 -4 8 -10 6 -14z
m838 -127 c-3 -20 -7 -45 -9 -54 -6 -32 -118 -335 -127 -343 -4 -4 -6 -4 -3 0
3 3 -2 14 -10 23 -13 15 -10 28 31 126 25 60 62 148 82 197 20 48 37 87 39 87
2 0 0 -16 -3 -36z m-548 -63 c-92 -192 -228 -451 -235 -446 -12 7 51 192 96
280 43 84 112 213 127 237 10 16 11 16 22 -4 9 -17 7 -30 -10 -67z m-1906 69
c0 -5 -5 -10 -11 -10 -5 0 -7 5 -4 10 3 6 8 10 11 10 2 0 4 -4 4 -10z m-904
-43 c1 -7 5 -30 9 -52 3 -22 8 -46 10 -53 3 -9 0 -10 -12 -4 -9 6 -18 16 -19
23 -13 70 -14 90 -9 100 8 11 18 5 21 -14z m908 -27 c4 -25 9 -57 11 -73 2
-15 7 -32 10 -37 3 -6 4 -10 0 -10 -10 0 -23 45 -30 110 -8 73 -1 80 9 10z
m1146 -25 c-5 -14 -7 -25 -4 -25 2 0 -14 -27 -36 -60 -23 -33 -54 -87 -69
-120 -24 -51 -30 -57 -34 -38 -6 22 28 86 72 137 11 12 29 46 41 76 22 53 49
81 30 30z m955 -81 c-14 -38 -40 -112 -57 -164 -26 -80 -58 -150 -58 -129 0
19 83 254 117 331 27 61 25 37 -2 -38z m165 -19 c-17 -37 -54 -115 -82 -173
-28 -59 -59 -126 -69 -149 -10 -24 -23 -43 -29 -43 -7 0 -10 4 -8 10 9 26 213
428 216 426 1 -2 -11 -34 -28 -71z m-2500 8 l-1 -38 -13 30 c-9 21 -10 32 -2
37 16 11 16 11 16 -29z m148 -88 c30 -59 41 -116 46 -262 2 -50 -9 -48 -20 4
-4 21 -8 40 -9 43 -2 8 -15 64 -20 85 -2 11 -16 65 -29 120 -14 55 -26 105
-26 110 0 10 3 5 58 -100z m-305 63 c-6 -39 -13 -49 -14 -22 0 10 -2 27 -4 37
-2 9 3 17 10 17 9 0 12 -10 8 -32z m-177 -93 c1 -5 5 -26 8 -45 4 -19 9 -42
11 -50 2 -8 7 -31 10 -50 3 -19 12 -66 20 -105 18 -91 22 -111 31 -181 3 -33
8 -66 9 -74 4 -25 -15 -42 -31 -29 -8 6 -14 17 -14 24 0 7 -8 34 -19 61 -22
59 -41 116 -46 142 -2 11 -8 37 -14 58 -15 53 -14 58 12 69 19 9 22 17 21 60
-1 48 -8 107 -20 150 l-5 20 13 -20 c7 -11 13 -24 14 -30z m1002 -42 c-3 -25
-5 -23 -20 19 -15 44 -15 47 0 50 18 4 26 -22 20 -69z m1497 -23 c-13 -41 -36
-114 -50 -162 -20 -67 -30 -88 -44 -88 -9 0 -22 -5 -29 -12 -17 -17 -15 -9 14
68 25 67 125 276 130 271 2 -1 -8 -36 -21 -77z m-1302 30 c-3 -11 -7 -20 -9
-20 -2 0 -4 9 -4 20 0 11 4 20 9 20 5 0 7 -9 4 -20z m-1474 -47 l0 -48 -15 39
c-14 38 -12 56 7 56 5 0 9 -21 8 -47z m1953 -69 c-3 -45 -11 -66 -44 -112
l-40 -57 6 40 c4 22 9 49 12 60 8 28 58 125 65 125 3 0 3 -25 1 -56z m1176
-45 c-32 -94 -186 -308 -299 -414 -42 -40 -41 -39 21 53 34 51 75 102 91 113
16 11 29 25 29 30 0 9 171 279 176 279 2 0 -7 -27 -18 -61z m-2462 -164 l3
-40 -15 45 c-8 25 -17 52 -19 60 -2 8 -11 41 -19 73 -25 93 -18 89 15 -8 17
-49 32 -108 35 -130z m1036 190 c11 2 16 -3 15 -15 -1 -14 -5 -16 -17 -9 -27
16 -50 36 -50 44 0 5 8 1 18 -7 9 -9 25 -14 34 -13z m360 -137 c-5 -31 -5 -62
-1 -70 7 -13 -79 -164 -88 -154 -7 7 28 128 41 142 8 7 22 48 32 91 20 85 30
80 16 -9z m-1984 36 c-4 -3 -2 -19 2 -35 5 -17 5 -29 -1 -29 -5 0 -9 6 -10 13
0 6 -2 22 -5 35 -2 12 1 22 8 22 6 0 9 -3 6 -6z m137 -186 c20 -59 48 -132 64
-162 l28 -55 -42 30 c-49 35 -63 58 -70 114 -6 48 -13 92 -19 124 -3 13 -8 49
-10 80 -5 52 -5 53 5 16 5 -22 25 -88 44 -147z m972 110 c-3 -8 -6 -5 -6 6 -1
11 2 17 5 13 3 -3 4 -12 1 -19z m-1100 -20 c-3 -8 -6 -5 -6 6 -1 11 2 17 5 13
3 -3 4 -12 1 -19z m937 6 c10 -25 -1 -29 -14 -5 -6 12 -7 21 -1 21 5 0 12 -7
15 -16z m1286 12 c0 -3 -4 -8 -10 -11 -5 -3 -10 -1 -10 4 0 6 5 11 10 11 6 0
10 -2 10 -4z m-670 -36 c92 -65 82 -201 -18 -258 -90 -50 -196 -21 -237 64
-42 88 1 184 95 215 42 14 127 3 160 -21z m880 -19 c-6 -12 -8 -21 -5 -21 13
0 -37 -80 -57 -91 l-21 -11 20 28 c10 16 30 50 43 76 14 26 26 45 28 43 2 -2
-1 -13 -8 -24z m-2042 -141 c11 -36 18 -67 15 -69 -2 -3 -13 5 -25 16 -15 16
-22 37 -24 75 -1 29 -5 69 -8 88 l-5 35 13 -40 c8 -22 23 -69 34 -105z m1672
67 c-6 -43 -15 -57 -75 -115 -63 -62 -66 -64 -45 -27 42 72 122 196 125 193 2
-2 -1 -25 -5 -51z m468 -19 c-24 -24 -57 -59 -74 -78 -33 -38 -150 -143 -166
-149 -26 -9 72 91 222 227 66 61 79 61 18 0z m-1707 -155 c58 -119 63 -132 57
-138 -12 -12 -118 182 -118 215 0 30 23 0 61 -77z m129 2 c41 -131 35 -135
-25 -18 -31 61 -35 76 -25 88 18 21 25 12 50 -70z m1294 12 c-63 -56 -110 -93
-98 -77 89 123 107 142 121 127 14 -13 11 -19 -23 -50z m-1478 -164 c18 -47
20 -63 11 -63 -7 0 -21 17 -31 38 -10 20 -35 64 -56 97 -22 34 -37 69 -35 80
2 11 4 31 5 45 1 19 11 6 42 -55 22 -44 51 -108 64 -142z m-180 42 c27 -38 63
-86 80 -105 31 -35 80 -120 68 -120 -16 0 -65 36 -70 52 -5 18 -131 189 -146
199 -5 3 -6 18 -2 33 8 31 5 34 70 -59z m-211 -11 l17 -27 -25 19 c-14 11 -23
22 -20 27 7 11 9 9 28 -19z m1320 -34 c-9 -17 -20 -28 -26 -24 -6 4 -2 15 12
30 30 32 33 30 14 -6z m-598 -15 c16 -24 18 -35 11 -55 -9 -24 -11 -22 -24 25
-13 50 -17 72 -11 64 2 -2 13 -17 24 -34z m112 -19 c9 -11 6 -12 -14 -8 -14 2
-22 8 -19 13 8 13 20 11 33 -5z m724 -126 c-4 -4 -21 -10 -38 -14 l-30 -7 29
20 c27 18 59 19 39 1z m-1019 -35 c16 -24 15 -25 -3 -25 -13 0 -18 7 -18 25 0
14 1 25 2 25 2 0 10 -11 19 -25z m736 -20 c-36 -27 -53 -28 -58 -4 -2 10 8 15
30 17 17 2 34 5 37 7 2 3 9 5 15 5 5 0 -5 -11 -24 -25z m524 4 c-6 -11 -24 -2
-24 11 0 5 7 7 15 4 8 -4 12 -10 9 -15z"/>
</g>
</svg>
